<svg viewBox="0 0 1024 1024" height="1024" width="1024" id="svg833" version="1.1" xmlns:xlink="http://www.w3.org/1999/xlink" xmlns="http://www.w3.org/2000/svg">
  <metadata id="metadata839">
    
      
        image/svg+xml
        
        
      
    
  </metadata>
  <defs id="defs837">
    <linearGradient id="linearGradient862">
      <stop id="stop858" offset="0" style="stop-color:#3b92da;stop-opacity:1"></stop>
      <stop id="stop860" offset="1" style="stop-color:#4478a0;stop-opacity:1"></stop>
    </linearGradient>
    <radialGradient gradientTransform="translate(-4.4144922e-5,-5.695625e-5)" r="512" fy="512" fx="512" cy="512" cx="512" gradientUnits="userSpaceOnUse" id="radialGradient928" xlink:href="#linearGradient862"></radialGradient>
  </defs>
  
  <g style="display:inline;opacity:1" id="layer1">
    <circle r="512" cy="512" cx="512" id="path856" style="opacity:1;fill:url(#radialGradient928);fill-opacity:1;fill-rule:evenodd;stroke:none;stroke-width:1.51937;stroke-miterlimit:4;stroke-dasharray:none"></circle>
  </g>
  <g style="display:inline" id="g841">
    <path id="path1653" d="" style="opacity:1;fill:#e7ba59;fill-opacity:1;fill-rule:evenodd;stroke:none;stroke-width:0.392762;stroke-miterlimit:4;stroke-dasharray:none"></path>
    <path id="path1819" d="" style="opacity:1;fill:#e7ba59;fill-opacity:1;fill-rule:evenodd;stroke:none;stroke-width:0.785525;stroke-miterlimit:4;stroke-dasharray:none"></path>
    <path id="path1877" d="" style="opacity:1;fill:#e7ba59;fill-opacity:1;fill-rule:evenodd;stroke:none;stroke-width:0.55545;stroke-miterlimit:4;stroke-dasharray:none"></path>
    <path id="path2063" d="" style="opacity:1;fill:#e7ba59;fill-opacity:1;fill-rule:evenodd;stroke:none;stroke-width:0.55545;stroke-miterlimit:4;stroke-dasharray:none"></path>
    <path id="path2089" d="" style="opacity:1;fill:#e7ba59;fill-opacity:1;fill-rule:evenodd;stroke:none;stroke-width:0.277725;stroke-miterlimit:4;stroke-dasharray:none"></path>
    <path id="path2282" d="M 1.2029027,230.50639 1.0274038,0.55718956 203.1926,0.75746959 C 407.52443,0.95989622 462.51284,1.6720356 441.72132,3.8465877 435.98451,4.4465914 417.88831,7.9435997 401.50754,11.617717 311.49135,31.807861 228.72931,75.061662 163.87976,135.80878 86.263086,208.51536 35.019018,297.68416 11.879238,400.30194 8.2273978,416.49673 4.370775,436.65643 3.3089651,445.1013 1.6480583,458.31094 1.3538882,428.3368 1.2029027,230.50639 Z" style="opacity:1;fill:#000000;fill-opacity:0;fill-rule:evenodd;stroke:none;stroke-width:2.2218;stroke-miterlimit:4;stroke-dasharray:none"></path>
    <path id="path2284" d="M 1.2029027,230.50639 1.0274038,0.55718956 203.1926,0.75746959 C 407.52443,0.95989622 462.51284,1.6720356 441.72132,3.8465877 435.98451,4.4465914 417.88831,7.9435997 401.50754,11.617717 311.49135,31.807861 228.72931,75.061662 163.87976,135.80878 86.263086,208.51536 35.019018,297.68416 11.879238,400.30194 8.2273978,416.49673 4.370775,436.65643 3.3089651,445.1013 1.6480583,458.31094 1.3538882,428.3368 1.2029027,230.50639 Z" style="opacity:1;fill:#000000;fill-opacity:0;fill-rule:evenodd;stroke:none;stroke-width:2.2218;stroke-miterlimit:4;stroke-dasharray:none"></path>
    <path id="path2286" d="M 1.2029027,230.50639 1.0274038,0.55718956 203.1926,0.75746959 C 407.52443,0.95989622 462.51284,1.6720356 441.72132,3.8465877 435.98451,4.4465914 417.88831,7.9435997 401.50754,11.617717 311.49135,31.807861 228.72931,75.061662 163.87976,135.80878 86.263086,208.51536 35.019018,297.68416 11.879238,400.30194 8.2273978,416.49673 4.370775,436.65643 3.3089651,445.1013 1.6480583,458.31094 1.3538882,428.3368 1.2029027,230.50639 Z" style="opacity:1;fill:#000000;fill-opacity:0;fill-rule:evenodd;stroke:none;stroke-width:2.2218;stroke-miterlimit:4;stroke-dasharray:none"></path>
    <path id="path2288" d="M 1021.0892,453.52091 C 1019.6107,429.34068 1007.8399,377.65122 996.02651,343.4619 957.18614,231.05385 880.31581,136.28572 776.4619,72.775798 731.85923,45.499872 679.95263,24.846627 623.97392,12.101985 606.68207,8.1651603 587.92791,4.4520202 582.298,3.8505627 561.74238,1.6545533 615.79243,0.95261954 820.28998,0.75982375 L 1023.1863,0.56853743 V 235.27027 c 0,129.08595 -0.2469,234.70172 -0.5456,234.70172 -0.2987,-1e-5 -0.9957,-7.40299 -1.5489,-16.45108 z" style="opacity:1;fill:#000000;fill-opacity:0;fill-rule:evenodd;stroke:none;stroke-width:2.2218;stroke-miterlimit:4;stroke-dasharray:none"></path>
    <path id="path2290" d="m 580.8244,1020.4487 c 8.04275,-1.0697 27.78406,-4.9192 43.86958,-8.5546 173.57717,-39.22936 313.04426,-163.83302 371.32504,-331.75181 10.18718,-29.35131 21.76418,-77.22931 24.87608,-102.87723 1.661,-13.69022 1.9533,16.14062 2.1044,214.78204 l 0.1755,230.6804 -228.4869,-0.167 c -196.97909,-0.144 -226.47038,-0.4352 -213.8637,-2.1118 z" style="opacity:1;fill:#000000;fill-opacity:0;fill-rule:evenodd;stroke:none;stroke-width:2.2218;stroke-miterlimit:4;stroke-dasharray:none"></path>
    <path id="path2292" d="M 1.1966605,792.76692 C 1.3504794,596.92164 1.6583286,565.09493 3.2723657,578.17206 4.3146709,586.61695 8.1911198,607.01173 11.886697,623.49379 43.016,762.32876 127.91708,879.5779 250.34172,952.80226 c 29.39694,17.58284 58.20542,30.93364 92.85659,43.0328 28.46333,9.93854 74.03572,21.13604 100.16838,24.61214 12.60664,1.6769 -16.88465,1.9674 -213.86375,2.107 l -228.4868841,0.1619 z" style="opacity:1;fill:#000000;fill-opacity:0;fill-rule:evenodd;stroke:none;stroke-width:2.2218;stroke-miterlimit:4;stroke-dasharray:none"></path>
    <path id="path2294" d="m 449.118,837.15605 c -3.95642,-4.64452 -4.36842,-5.9588 -3.48483,-11.11651 2.28018,-13.30993 2.61694,-16.8166 1.61501,-16.81661 -2.07327,-3e-5 -6.07271,8.57533 -6.07276,13.02082 -7e-5,5.87191 -2.54591,5.6517 -7.80198,-0.67488 l -4.14614,-4.99059 2.43967,-7.34488 c 2.45582,-7.39352 3.1767,-7.69916 8.14906,-3.45514 3.03204,2.58791 5.40704,-0.003 25.30912,-27.60166 l 15.53353,-21.54127 10e-4,-20.13456 c 0.002,-22.09704 -4.61078,-51.57439 -8.06979,-51.57443 -0.99539,-10e-6 -4.02883,0.91791 -6.74096,2.03983 l -4.93113,2.03985 -22.86914,-14.78389 -22.86914,-14.78388 -5.28546,-11.75013 c -2.90701,-6.46256 -5.28305,-13.43064 -5.2801,-15.48463 0.007,-5.31493 -8.03737,-12.52361 -16.26748,-14.57643 -10.55753,-2.63332 -17.11319,-10.58431 -24.69073,-29.94595 -3.86553,-9.87696 -9.04077,-19.84109 -13.4083,-25.81564 l -7.11292,-9.73009 -12.02994,0.69715 c -6.61647,0.38344 -17.23347,1.61949 -23.59333,2.74679 -8.69369,1.54098 -13.09118,1.66491 -17.71964,0.4994 -5.89565,-1.48461 -6.26741,-1.91735 -8.78182,-10.22221 -1.97942,-6.53785 -3.19665,-8.5127 -4.94617,-8.02479 -1.27634,0.35594 -5.28181,1.07229 -8.90105,1.59189 -10.23911,1.47 -10.58209,1.6714 -17.40305,10.21924 l -6.43124,8.05945 -31.94344,-3.5e-4 -31.94343,-3.6e-4 -8.95712,18.64443 -8.95712,18.64443 -2.02632,21.56589 -2.02633,21.5659 7.39606,16.45438 c 6.54231,14.55502 8.69126,17.76259 18.61654,27.78746 6.17127,6.23319 12.01964,11.33308 12.99638,11.33309 3.81559,5e-5 3.28126,-3.24728 -2.39057,-14.52829 l -5.89684,-11.72858 2.9e-4,-26.0934 2.9e-4,-26.09341 7.69318,-11.05238 c 6.39896,-9.19304 13.73781,-16.37695 26.97944,-26.4099 0.97357,-0.73765 8.10741,-1.88408 15.85299,-2.54762 12.41513,-1.06356 15.78249,-0.79487 28.43476,2.26887 8.36277,2.02503 21.27462,6.74737 30.94103,11.31627 14.71377,6.95457 18.49584,9.58659 33.45543,23.28246 15.69536,14.36949 17.45422,16.54431 25.3355,31.32704 7.28533,13.66494 8.88157,18.13485 11.41906,31.97648 2.5832,14.09108 2.8264,19.49861 1.95677,43.50934 -0.54618,15.08013 -0.49495,27.41843 0.1139,27.41843 0.6088,10e-6 2.18031,-0.97139 3.49226,-2.15866 2.14492,-1.94108 3.33357,-1.20193 11.79259,7.33315 8.16612,8.23955 9.16762,9.8266 7.591,12.02942 -0.99893,1.39568 -2.18568,3.52465 -2.63723,4.73106 -0.45154,1.2064 -2.08395,4.99013 -3.62757,8.40828 -2.71594,6.01411 -3.02548,6.2148 -9.58505,6.21473 -5.52032,-6e-5 -6.47478,-0.366 -5.14226,-1.97156 1.24837,-1.50416 0.94419,-2.5978 -1.2832,-4.61361 -2.85915,-2.58751 -2.91949,-2.54676 -2.91954,1.97148 l -5e-5,4.61359 -8.08029,-9e-5 -8.08029,-9e-5 2.43421,-4.7525 c 1.33882,-2.61388 5.30404,-9.82947 8.81163,-16.03465 3.50758,-6.20518 6.37742,-12.01786 6.37743,-12.91707 5e-5,-4.23184 -4.09136,0.84737 -13.06217,16.21583 l -9.78142,16.75717 -7.5885,0.44192 c -7.06432,0.41139 -9.77706,-1.11037 -6.06689,-3.40332 1.57226,-0.97169 5.27625,-6.59127 12.2648,-18.60777 3.27347,-5.62861 3.59879,-6.94597 1.71527,-6.94599 -1.32021,-1e-5 -6.5305,6.31724 -12.06066,14.62303 l -9.73632,14.62305 -7.17487,-8e-5 c -5.33008,-6e-5 -6.90243,-0.47006 -6.11533,-1.82796 0.58273,-1.00534 7.2021,-10.82102 14.7097,-21.81261 7.50761,-10.99159 13.65018,-20.36862 13.65019,-20.83785 0,-0.46923 -0.82254,-0.83285 -1.82789,-0.80808 -1.00534,0.0249 -9.06647,10.19271 -17.91362,22.59541 l -16.08573,22.55035 -7.67716,0.0703 c -4.22244,0.0386 -7.65973,-0.42333 -7.63843,-1.02653 0.0213,-0.60321 11.57902,-15.90256 25.68385,-33.99856 14.10481,-18.09601 26.34188,-34.21791 27.19349,-35.82645 3.62117,-6.83973 -12.45026,10.84216 -34.69286,38.16931 -13.15939,16.16753 -25.43966,30.31987 -27.28952,31.4496 -2.20225,1.34496 -5.72573,1.79815 -10.20622,1.31274 l -6.84285,-0.7414 21.93279,-24.85913 c 12.06304,-13.67252 28.24926,-32.42654 35.96938,-41.6756 7.72012,-9.24907 14.4742,-17.33158 15.00906,-17.96114 2.2024,-2.59233 5.84221,1.17313 9.53648,9.86566 3.26991,7.69407 9.76015,15.40744 12.96426,15.40747 0.37703,10e-6 1.49254,-3.60604 2.47892,-8.01343 1.56279,-6.98287 1.36838,-10.60307 -1.51167,-28.1496 -3.09205,-18.83821 -3.8442,-21.14925 -11.66855,-35.85288 -7.98313,-15.00202 -9.11072,-16.35705 -24.79668,-29.79857 -19.35222,-16.58318 -34.8214,-25.38978 -53.57093,-30.49793 -28.58986,-7.78908 -44.02556,-4.25981 -59.38035,13.57693 -8.04052,9.34019 -8.27594,9.86662 -10.09867,22.58221 -2.98364,20.81423 -0.53858,38.00647 7.764,54.59203 l 6.52995,13.04448 -3.66357,5.48364 c -3.43969,5.14854 -4.12223,5.48364 -11.16901,5.48356 l -7.50544,-8e-5 -14.9003,-14.98891 C 163.49325,676.921 161.33283,673.97766 155.35656,661.05699 l -6.64241,-14.36085 2.4e-4,-21.40683 c 2.1e-4,-18.78717 0.48067,-23.11411 3.92614,-35.35793 3.24098,-11.51712 5.77035,-16.72294 14.49797,-29.83882 l 10.57206,-15.88774 18.03902,-11.53016 c 25.63078,-16.38266 40.51763,-21.80244 76.63405,-27.89973 10.80151,-1.82355 19.63911,-3.78473 19.63912,-4.35816 1e-5,-0.57343 -3.45469,-3.13643 -7.6771,-5.69554 -7.93325,-4.80819 -10.20421,-7.40896 -32.76709,-37.52602 -13.06477,-17.43893 -13.58625,-18.44516 -20.84177,-40.21534 l -7.44172,-22.32889 4.1e-4,-36.97216 c 3.3e-4,-30.06826 0.56921,-40.71741 3.04649,-57.02887 2.93053,-19.29595 3.45205,-20.89867 13.74932,-42.25446 5.88679,-12.20877 11.45198,-25.69858 12.36709,-29.97734 1.28049,-5.98717 3.136,-9.29569 8.05345,-14.35993 3.93509,-4.05256 8.02863,-10.51251 10.6563,-16.81652 3.73235,-8.95426 5.46449,-11.15181 13.83129,-17.54764 6.50459,-4.97231 11.70927,-10.64862 16.26812,-17.74231 5.85315,-9.10766 8.05733,-11.18452 17.37589,-16.37226 5.86982,-3.26778 15.60083,-9.90732 21.62449,-14.75453 6.02364,-4.84721 12.93313,-9.24296 15.35442,-9.76835 2.42128,-0.52538 16.4257,-4.16682 31.12094,-8.0921 25.13018,-6.71258 28.14447,-7.19309 50.70245,-8.0825 l 23.98382,-0.94563 4.48494,3.77391 c 3.19566,2.68902 6.90643,4.03941 12.90835,4.69747 10.52026,1.15346 13.80491,2.49965 21.51526,8.81784 3.57617,2.93048 10.35859,6.33728 16.22237,8.14849 8.02176,2.47777 11.17117,4.35584 15.44314,9.20916 2.95149,3.35315 8.57364,7.5989 12.49365,9.43498 5.97642,2.7993 8.14944,5.03615 13.45751,13.85285 3.48162,5.78297 10.82358,14.79182 16.31548,20.01967 9.95312,9.47457 10.01152,9.57673 18.14469,31.74506 l 8.15944,22.2399 -2.6e-4,22.78 c -2.1e-4,19.13103 -0.60726,25.52373 -3.78969,39.90859 -4.38888,19.83803 -8.2797,27.6746 -22.82222,45.96683 -12.5397,15.77297 -30.30293,28.66477 -55.30754,40.13983 l -17.22531,7.90502 -8.1898,-4.01677 c -7.76867,-3.81022 -8.1898,-4.29796 -8.18974,-9.48494 4e-5,-4.16102 2.09747,-8.79727 8.77411,-19.39479 l 8.77405,-13.9266 3.1e-4,-27.55444 3e-4,-27.55442 -8.54844,-10.14206 c -8.14821,-9.66725 -9.2766,-10.43667 -24.10133,-16.43419 l -15.55289,-6.29212 -9.37605,2.81278 c -10.87886,3.26359 -30.16011,17.60552 -30.16017,22.43394 -1e-5,1.55585 -2.63225,7.62473 -5.84941,13.4864 -5.68325,10.35489 -5.84939,11.05819 -5.84954,24.76104 -1.4e-4,13.0607 0.43762,15.2023 5.92089,28.96604 5.42927,13.62816 7.00815,16.02093 19.00979,28.80887 8.05105,8.57851 13.08873,15.15017 13.08871,17.07423 -4e-5,3.78569 22.45009,19.70035 27.94812,19.81215 8.56686,0.17418 22.63141,9.92496 49.73474,34.48046 27.20119,24.64416 27.24472,24.69354 36.92301,41.88569 8.30681,14.75585 9.68972,18.2413 9.68965,24.42134 -5e-5,4.57075 1.87289,12.38325 5.11787,21.34797 3.98335,11.00451 5.11793,16.36966 5.11784,24.20082 -6e-5,5.53397 0.44073,10.06178 0.97955,10.06178 0.53881,10e-6 5.30966,-4.14868 10.6019,-9.2193 13.21358,-12.66029 57.75121,-40.21204 86.51432,-53.51927 30.37404,-14.0525 35.73642,-18.7344 46.16086,-40.30292 l 7.79859,-16.13559 0.0133,-15.2847 c 0.0133,-14.95423 -0.0797,-15.38106 -4.30295,-19.74131 l -4.31655,-4.45662 -20.21384,1.28348 -20.21383,1.28347 -13.07774,8.95238 c -10.10762,6.91917 -14.08465,10.66945 -17.51134,16.51298 -3.17019,5.4061 -6.19402,8.41664 -10.61113,10.56451 l -6.1775,3.00388 -7.0132,-4.35975 -7.01322,-4.35977 1.83968,-24.65855 c 1.75856,-23.57156 2.12924,-25.42171 8.40856,-41.9708 6.37533,-16.80209 6.92527,-17.67106 18.66324,-29.48934 13.35832,-13.44946 27.88827,-23.7708 33.46376,-23.77073 1.98952,2e-5 10.98426,-2.96107 19.98829,-6.5802 l 16.37098,-6.58024 25.62548,2.8e-4 25.62547,2.8e-4 21.55078,10.81836 c 20.07545,10.07777 22.3521,11.65446 33.25644,23.03184 10.70651,11.17099 12.66661,14.21062 22.9634,35.61068 11.20721,23.2922 11.27108,23.49273 14.23527,44.69047 l 2.97752,21.29328 -5.98992,27.67279 c -4.22052,19.49832 -7.39248,30.48687 -10.73797,37.19926 -2.61143,5.23958 -5.95032,12.81669 -7.41974,16.83805 -1.53038,4.1881 -7.05988,12.62139 -12.9438,19.74112 -16.06766,19.44241 -58.07288,62.87895 -60.80693,62.87891 -1.35501,-10e-6 -7.34938,4.16596 -13.32082,9.25772 -5.97144,5.09176 -16.68212,12.80187 -23.80153,17.13356 l -12.94436,7.87582 5.63266,2.37187 c 3.09798,1.30453 11.88407,3.88654 19.52465,5.7378 7.64058,1.85128 23.10453,6.24999 34.36432,9.77493 11.2598,3.52495 33.96219,9.02207 50.44977,12.21584 35.55281,6.88685 47.88305,6.87342 72.23741,-0.0786 13.09869,-3.73912 15.18997,-4.8374 21.98084,-11.54376 8.40145,-8.2969 12.85882,-9.29983 21.98645,-4.94704 4.931,2.3515 5.16769,2.81056 5.16761,10.02267 -7e-5,5.88319 -1.44084,10.64133 -6.50097,21.4694 -7.72868,16.53843 -11.80118,20.53551 -37.51146,36.8168 -17.62612,11.16191 -17.97246,11.30304 -40.62319,16.55336 l -22.8455,5.29548 -55.56799,-1.73739 c -30.5624,-0.95556 -69.38688,-1.72464 -86.27663,-1.70906 -36.90573,0.0341 -52.39245,2.88287 -67.05206,12.33445 -8.56253,5.52057 -9.15514,7.48363 -2.53636,8.40195 2.65375,0.36821 4.0987,2.0611 5.83307,6.83398 2.19935,6.05247 2.17207,6.44207 -0.59246,8.4635 -5.0814,3.71551 -8.617,1.98216 -10.07119,-4.93749 -0.71836,-3.41817 -1.83181,-6.21486 -2.47433,-6.21487 -2.73255,-3e-5 -2.88604,3.51108 -0.44971,10.28655 l 2.60268,7.23806 -4.1643,4.34651 c -2.29037,2.39059 -4.67134,4.03314 -5.29103,3.65013 -0.61971,-0.383 -2.23658,-4.03794 -3.59309,-8.12211 -1.73408,-5.22105 -2.92559,-6.96647 -4.01321,-5.87887 -1.08761,1.08758 -0.74668,4.1898 1.14833,10.44886 l 2.69521,8.90201 -4.48793,4.48783 c -5.38292,5.38272 -7.72299,4.43792 -7.72291,-3.1182 4e-5,-3.85164 -0.75202,-5.89512 -2.4027,-6.52857 -3.67033,-1.40848 -3.79819,-0.43917 -1.24297,9.42219 l 2.36743,9.13662 -4.76596,4.91712 c -2.62129,2.7044 -5.29493,4.91711 -5.94143,4.9171 -0.64651,-10e-6 -1.17542,-2.93805 -1.17538,-6.52899 5e-5,-5.03236 -0.67033,-6.88777 -2.92455,-8.09422 -3.5045,-1.8756 -3.58782,-1.20017 -1.34723,10.92105 1.56277,8.45437 1.53585,8.57515 -2.9003,13.0112 -4.37467,4.37457 -4.52769,4.41151 -6.64912,1.60556 -1.48105,-1.9589 -2.18617,-6.52603 -2.21781,-14.36469 l -0.0464,-11.49262 10.14088,-16.29127 c 9.74338,-15.65267 10.8468,-16.83536 28.14992,-30.17234 25.56924,-19.70836 33.44911,-23.42042 61.87869,-29.14988 l 23.39711,-4.71526 54.83682,3.50345 c 54.29091,3.46858 55.16434,3.47862 87.73895,1.00957 19.05054,-1.44397 36.59665,-3.54567 41.67782,-4.99224 6.19278,-1.76303 14.58555,-6.4711 28.51534,-15.99615 18.90999,-12.93048 20.00026,-13.95412 25.94007,-24.35492 4.59928,-8.05346 6.20419,-12.46198 6.21504,-17.07196 0.0204,-8.69863 -3.01138,-8.1778 -13.83813,2.37727 -9.72683,9.48272 -13.70539,10.95818 -47.56482,17.63962 -14.84519,2.92938 -15.57845,2.94444 -22.11215,0.45394 -6.26018,-2.38624 -9.43667,-2.44886 -43.13832,-0.85054 -36.18651,1.71617 -36.57937,1.70263 -73.66952,-2.53582 -37.08189,-4.2375 -37.5002,-4.25191 -75.30925,-2.59589 l -38.02024,1.66527 -8.55358,7.31946 c -7.58871,6.49381 -10.64031,7.9528 -27.05299,12.93425 -14.39137,4.36795 -20.94348,5.61645 -29.50565,5.62225 l -11.00622,0.007 -35.90281,36.19192 c -44.25419,44.61055 -48.61868,50.8305 -51.14123,72.88251 -2.0315,17.75947 -3.41775,19.57702 -9.49244,12.44583 z m -72.33537,-65.85799 c 1.9358,-3.61697 1.90627,-4.48306 -0.15288,-4.48308 -1.70148,-2e-5 -5.51438,4.23264 -5.59846,6.21478 -0.0974,2.29538 4.30556,0.96969 5.75134,-1.7317 z m 4.43848,-7.40766 c 0,-0.80428 -0.98705,-1.46233 -2.19346,-1.46234 -1.20641,-2e-5 -2.19348,0.65801 -2.19349,1.46229 -10e-6,0.80427 0.98704,1.46232 2.19346,1.46234 1.20641,10e-6 2.19348,-0.65802 2.19349,-1.46229 z m -29.24619,-12.31041 c 0,-0.33636 0.39944,-1.65244 0.88764,-2.92463 1.30304,-3.39552 -2.74603,-2.89382 -4.9352,0.61151 -1.59885,2.5601 -1.46043,2.92461 1.11054,2.92464 1.61536,2e-5 2.93702,-0.27518 2.93702,-0.61152 z m 8.51229,-14.17769 c 2.67103,-4.08384 4.54477,-7.73682 4.16386,-8.11774 -1.42269,-1.42273 -6.70874,3.18299 -9.64107,8.40026 -3.53087,6.28215 -3.68617,7.20449 -1.20711,7.16888 1.00534,-0.0146 4.01329,-3.36756 6.68432,-7.4514 z m -15.82366,-4.22095 c 1.20197,-2.24585 1.1121,-2.92462 -0.38722,-2.92463 -2.14936,-3e-5 -5.46205,2.83794 -5.46207,4.67935 -2e-5,2.37543 4.33482,1.07502 5.84929,-1.75472 z m 183.27024,-18.73042 c 5.76782,-4.67287 12.79009,-9.37889 15.60506,-10.45783 2.81497,-1.07894 14.3308,-8.57346 25.59072,-16.6545 15.46099,-11.09607 23.0016,-15.52217 30.80371,-18.08079 5.68213,-1.86339 18.44159,-7.65439 28.35437,-12.86887 l 18.02322,-9.48089 25.76561,2.9e-4 25.76562,2.9e-4 35.81289,-24.86307 c 22.19209,-15.40685 39.01087,-28.21328 44.2213,-33.6717 l 8.40841,-8.80862 2e-4,-17.42786 c 1.8e-4,-16.63347 0.22213,-17.91487 4.86909,-28.11166 3.78247,-8.29984 6.00182,-11.29388 9.94612,-13.41797 3.57263,-1.92394 6.42913,-5.3903 9.63935,-11.69738 l 4.56215,-8.9632 -2.0466,-13.16087 c -1.12563,-7.23848 -2.06071,-21.7528 -2.07796,-32.25405 l -0.0314,-19.09319 -10.11208,-4.89204 c -9.45562,-4.57446 -10.78821,-5.85068 -20.52691,-19.65843 -7.806,-11.06753 -14.09204,-17.87993 -25.09485,-27.19622 -13.66886,-11.57365 -15.60409,-12.7058 -28.09471,-16.436 -12.66045,-3.7809 -55.12143,-11.34893 -63.67454,-11.34902 -2.86983,-3e-5 -6.15528,2.27955 -12.11828,8.40818 -7.55038,7.76008 -8.69294,9.88228 -14.82205,27.53061 -5.80811,16.72407 -6.77289,21.26326 -7.69239,36.19224 -1.02445,16.63281 -0.97376,17.06985 1.97967,17.06989 2.18151,2e-5 4.79887,-2.88305 9.33838,-10.28642 5.91659,-9.64921 7.22506,-10.81548 21.12171,-18.82635 l 14.81438,-8.53992 18.08784,-1.61119 c 17.08166,-1.52154 18.64518,-1.43172 28.10681,1.61474 9.77072,3.14599 10.12399,3.43395 14.25745,11.62253 3.67664,7.28358 4.23847,10.02972 4.23836,20.71618 -1.3e-4,11.6905 -0.36672,13.10457 -7.17917,27.69325 -4.84375,10.37273 -10.77843,19.89481 -18.24405,29.27225 l -11.06502,13.89855 -21.60448,8.33714 c -11.88247,4.58541 -22.64917,9.51808 -23.92603,10.96146 -1.27685,1.44338 -9.68961,6.31945 -18.69502,10.83572 -9.60851,4.8187 -22.24349,12.7995 -30.58081,19.31616 -21.05151,16.45435 -49.81227,45.00303 -61.12389,60.67316 -5.4359,7.5304 -11.79821,15.99477 -14.13846,18.8097 -2.46845,2.96912 -7.57126,14.02087 -12.1532,26.32155 l -7.89821,21.2035 -0.027,17.91337 c -0.0178,11.85425 0.50662,17.91338 1.55037,17.91339 0.86751,10e-6 6.2964,-3.82324 12.0642,-8.49611 z m -23.87707,-46.20375 c 8e-5,-7.29286 13.36815,-33.68217 24.90361,-49.16109 l 11.46982,-15.39086 -1.5476,-11.66188 c -1.04353,-7.86338 -3.39481,-15.77341 -7.21872,-24.28478 -5.14161,-11.44429 -5.6711,-13.77523 -5.67098,-24.96455 l 1.4e-4,-12.34167 -13.52629,-12.07328 c -14.36457,-12.82151 -37.39877,-25.98881 -51.77866,-29.59881 -4.22072,-1.0596 -12.43641,-5.48345 -20.34656,-10.95587 -7.29705,-5.04826 -19.55748,-11.88778 -27.24543,-15.19893 -11.79517,-5.08012 -14.6947,-7.01818 -18.56689,-12.41023 -2.52383,-3.51447 -7.94142,-10.05832 -12.03907,-14.5419 l -7.45028,-8.15197 1.04283,-9.73674 c 0.57357,-5.3552 1.33821,-10.50647 1.69924,-11.44726 0.36102,-0.94079 -2.30091,-5.26793 -5.91542,-9.61587 -6.29568,-7.57317 -6.47655,-8.05112 -4.30462,-11.37471 1.93144,-2.95556 2.0257,-5.09325 0.63643,-14.43473 l -1.63077,-10.96536 12.44731,-13.55981 12.44729,-13.55983 1.7e-4,-14.81455 c 1.5e-4,-14.0202 0.2746,-15.35951 5.11838,-24.97771 2.81502,-5.58973 5.12017,-11.66017 5.12254,-13.48986 0.003,-2.34977 3.69672,-6.54744 12.5777,-14.29395 10.86453,-9.47666 14.25705,-11.53513 24.96139,-15.1457 l 12.38802,-4.17846 9.0333,3.22767 c 21.08935,7.53538 29.2994,12.52586 39.66991,24.11336 8.9069,9.95211 10.1824,12.17398 12.83339,22.35534 2.75356,10.57525 2.82712,12.62632 1.13968,31.77734 l -1.80384,20.4724 -8.60835,15.48208 c -4.7346,8.51513 -8.60836,15.91806 -8.60837,16.45096 -8e-5,7.66224 57.08998,-25.22706 65.23851,-37.58358 2.19338,-3.32607 7.49729,-10.39978 11.78648,-15.71934 7.09997,-8.80557 8.19806,-11.19972 12.25888,-26.72789 l 4.46037,-17.05597 -3.36764,-4.26532 c -2.07931,-2.63358 -4.78756,-4.29628 -7.07933,-4.34625 -5.13736,-0.11208 -12.66244,-9.50788 -21.14978,-26.40764 -3.78142,-7.52946 -10.26306,-17.59167 -14.40365,-22.36046 -8.3675,-9.63703 -14.34841,-12.88524 -43.70669,-23.73696 -13.00066,-4.80545 -20.76838,-8.83995 -31.99836,-16.61973 -13.32991,-9.23456 -16.22496,-10.59614 -28.62044,-13.46062 -13.33742,-3.08216 -14.83224,-3.12982 -45.50419,-1.45094 -26.10824,1.42907 -78.19464,6.97124 -90.21413,9.59907 -1.61276,0.3526 -7.04165,3.69474 -12.0642,7.42697 -7.06203,5.24776 -9.13192,7.63569 -9.13195,10.53513 -3e-5,2.37008 -3.76554,8.7588 -10.23641,17.36751 -7.43797,9.89533 -10.23637,14.83255 -10.23641,18.06007 -3e-5,2.61097 -4.57604,13.5783 -11.10193,26.60797 -10.37554,20.71593 -11.29219,23.32181 -14.01046,39.82969 -1.96887,11.95675 -3.14816,27.82114 -3.65014,49.1033 l -0.74156,31.43979 5.2777,19.74133 c 7.10083,26.56078 11.71075,37.36767 19.3588,45.38224 3.48011,3.64689 6.32747,7.47386 6.32746,8.50437 -6e-5,4.99998 17.41132,23.82258 31.43942,33.98765 8.04267,5.82789 18.95698,14.43321 24.25402,19.12293 8.90517,7.88418 10.16249,8.52679 16.68357,8.52686 4.53307,5e-5 16.24224,2.93049 32.776,8.20281 24.41866,7.78665 26.17984,8.60256 34.72195,16.08586 4.9492,4.33572 10.22075,7.88315 11.71457,7.88317 1.56922,10e-6 12.99772,10.34237 27.06642,24.49409 23.33408,23.47176 24.6693,25.13491 31.99142,39.84847 4.20258,8.44492 9.7936,22.66219 12.4245,31.59393 2.6309,8.93174 6.5058,19.63851 8.61089,23.79282 3.38952,6.68907 4.15752,7.37667 6.71221,6.00948 1.60751,-0.86029 2.88478,-3.05619 2.8848,-4.9596 z" style="opacity:1;fill:#000000;fill-opacity:0;fill-rule:evenodd;stroke:none;stroke-width:2.2218;stroke-miterlimit:4;stroke-dasharray:none"></path>
    <path id="path2689" d="m 511.99817,948.54737 h -1.39156 l -58.58762,-58.633 -58.58734,-58.63298 v -4.47294 -4.47294 l 1.73594,-4.52424 1.73622,-4.52425 57.54907,57.50242 57.54906,57.5024 62.67284,-62.63013 62.67256,-62.63013 h 89.57897 89.57897 v -27.92106 -27.92106 l 6.73685,1.28785 6.73684,1.28781 V 784.48257 819.2 h -93.66312 -93.66338 l -64.63137,64.67368 -64.63164,64.67369 z m -2.62495,-66.36649 -1.41527,13.12824 -6.2173,-5.05891 -6.21729,-5.05893 0.82782,-15.67922 0.82782,-15.67922 6.80475,7.60991 6.80502,7.60988 z m 7.54661,12.47175 h -2.22504 v -14.66826 -14.66823 l 6.06316,-4.26884 6.06315,-4.26884 2.34146,12.35906 2.34173,12.35906 -6.17984,6.57804 -6.17984,6.57801 z m -25.56038,-29.65059 -2.26466,13.94615 -6.06315,-6.46882 -6.06316,-6.46883 0.18863,-9.2579 0.18863,-9.2579 1.91273,-4.84654 1.91272,-4.84654 6.22592,6.62711 6.22592,6.62712 -2.26493,13.94615 z m 51.30078,5.70907 -5.71877,5.37072 -1.69176,-4.40867 -1.69175,-4.40867 v -8.74146 -8.74146 l 6.46224,-6.07119 6.46252,-6.07116 0.94801,13.85057 0.94828,13.8506 z m -173.46451,2.38363 h -2.67776 l -8.35449,-11.45263 -8.35449,-11.45264 -8.22164,-16.16842 -8.22191,-16.16842 -10.541,-29.51909 -10.54073,-29.51912 -3.88932,-18.48864 -3.88904,-18.48864 0.28429,-15.31859 0.2843,-15.31855 5.38866,17.0078 5.3884,17.00784 0.62248,-0.83941 0.62276,-0.83939 -2.33068,-28.29473 -2.33068,-28.29474 2.84995,-47.1579 2.85023,-47.15789 5.3027,-41.76842 5.30297,-41.76842 5.45118,-33.35379 5.45119,-33.35375 1.65861,-2.68369 1.65861,-2.68371 13.47476,1.5959 13.47476,1.59588 1.27245,1.27259 1.27273,1.27256 -4.33287,25.41859 -4.3326,25.41856 v 45.47676 45.47673 l 3.95642,43.0028 3.95668,43.00277 -2.94858,1.8224 -2.94885,1.82239 2.44251,7.32694 2.44224,7.32693 30.20314,-38.00476 30.20369,-38.00473 h 2.32097 2.32098 l 6.59645,6.11322 6.59617,6.11323 14.00778,8.98875 14.00778,8.98873 v 5.84639 5.84639 l -21.99686,28.2306 -21.99687,28.23058 -10.23515,14.99454 -10.23542,14.99454 -9.49355,20.03704 -9.49329,20.03704 -5.43232,21.31526 -5.43232,21.31529 v 17.08471 17.08474 h -2.65647 -2.65674 l -7.34289,-11.09609 -7.34316,-11.09609 -0.87309,2.61947 -0.87309,2.61947 5.48325,24.61653 5.48324,24.6165 v 1.37588 1.37591 z m 101.81065,-14.69772 -1.25709,1.25707 -4.47461,-4.94449 -4.47461,-4.94449 0.0404,-10.56677 0.0404,-10.56676 2.1566,-3.39726 2.1566,-3.39725 5.6743,6.09199 5.67458,6.09199 -2.1407,11.55945 -2.14043,11.55945 -1.25709,1.25707 z m 88.72097,-4.85731 -6.6145,6.61436 -1.91676,-12.78181 -1.91677,-12.78184 6.6145,-6.61434 6.61423,-6.61436 1.91677,12.78181 1.91676,12.78184 z m -104.32026,-11.43229 -1.97093,1.21813 -4.72414,-5.22008 -4.72414,-5.22006 1.8343,-12.23217 1.83431,-12.23219 h 2.11214 2.11186 l 4.29029,4.74077 4.29029,4.74077 -1.54139,11.49335 -1.54166,11.49335 z m 115.03642,-1.34953 h -1.22557 l -1.62465,-6.06315 -1.62493,-6.06316 -0.0377,-5.6455 -0.0377,-5.6455 5.04697,-4.5675 5.04697,-4.56747 1.65295,6.17086 1.65323,6.1709 0.0377,6.25564 0.0377,6.25564 -3.8497,3.84962 -3.8497,3.84962 z M 439.49466,827.28421 h -2.11213 l -4.32748,-4.78181 -4.32748,-4.78178 2.89038,-11.38664 2.8901,-11.38661 h 2.03722 2.03696 l 3.33419,4.01764 3.33447,4.01761 -1.82218,12.15081 -1.82218,12.15078 z m 145.15145,0 h -1.97093 l -1.84374,-12.29455 -1.84374,-12.29455 3.21509,-3.87387 3.21509,-3.87387 h 1.93806 1.93832 l 3.30644,11.03586 3.30644,11.03587 -4.64491,5.13255 -4.64492,5.13256 z M 257.57192,819.2 h -63.55078 l -0.0269,-93.64211 -0.0269,-93.6421 -64.66005,-64.65878 -64.659931,-64.65876 v -2.73491 -2.73492 l 53.371901,-53.32186 53.37184,-53.32186 3.74569,6.99895 3.74595,6.99894 -47.6804,47.68027 -47.680265,47.68029 62.111385,62.1536 62.11152,62.15359 -0.2021,89.44063 -0.2022,89.44061 h 53.64493 53.64493 l 1.66346,4.71579 1.66319,4.71579 1.57023,3.36842 1.57022,3.36842 h -63.55078 z m 168.32214,-6.8145 -2.10001,1.29794 -4.27008,-4.71827 -4.27008,-4.71824 2.89038,-11.38664 2.8901,-11.38661 h 2.03722 2.03695 l 3.27734,3.9489 3.27707,3.94892 -1.83431,10.85801 -1.83457,10.85804 z m 178.27515,-3.3151 -5.28357,5.28374 -1.57589,-2.5499 -1.57615,-2.54987 -1.74888,-10.93847 -1.74915,-10.93848 5.30054,-2.83686 5.30082,-2.83683 3.30806,11.04147 3.30806,11.04147 z m 13.03201,-12.87213 -5.35902,4.84985 -2.88094,-7.57749 -2.88095,-7.57752 -0.55592,-5.19683 -0.55592,-5.19683 5.34824,-3.07604 5.34851,-3.07604 3.56244,-4.71579 3.56218,-4.71579 h 2.13261 2.13261 l 4.87317,10.80643 4.87289,10.80641 1.11373,-1.11371 1.11374,-1.11371 -5.57757,-10.93273 -5.57729,-10.93271 v -2.48226 -2.48225 l 9.60889,-7.32912 9.60889,-7.32912 4.01354,4.98823 4.01327,4.98822 -3.10649,-6.37752 -3.10649,-6.37756 4.40266,-4.40139 4.40266,-4.40142 1.9235,2.82694 1.92377,2.82697 15.49474,24.7653 15.49473,24.76531 v 1.37615 1.37617 h -7.52451 -7.52424 l -10.2462,-17.51579 -10.24647,-17.51579 h -1.22421 -1.22449 l 9.69,17.32732 9.69,17.32732 -19.15877,0.0606 -19.15876,0.0606 -5.55682,1.76366 -5.55682,1.76365 -2.53494,-3.65679 -2.53466,-3.65678 1.56187,5.61103 1.56186,5.61104 -5.35902,4.84988 z m 1.68987,-18.31756 1.79658,-1.7965 -1.79658,-1.7965 -1.79631,-1.79647 v 3.59297 3.59297 z m 34.58263,0.89824 h 1.34737 v -1.34737 -1.34737 h -1.34737 -1.34737 v 1.34737 1.34737 z m -2.69473,-5.38948 h 1.34736 v -1.34736 -1.34737 h -1.34736 -1.34737 v 1.34737 1.34736 z M 648.08425,768 h 1.34737 v -1.34737 -1.34737 h -1.34737 -1.34737 V 766.65263 768 Z m -2.69474,-5.38947 h 1.34737 v -1.34737 -1.34737 h -1.34737 -1.34736 v 1.34737 1.34737 z m -2.69473,-5.38948 h 1.34737 v -1.34737 -1.34736 h -1.34737 -1.34737 v 1.34736 1.34737 z m -2.69474,-5.38947 h 1.34737 v -1.34737 -1.34737 h -1.34737 -1.34737 v 1.34737 1.34737 z M 411.0342,797.64211 h -3.05098 l -3.23368,-3.23369 -3.23369,-3.23368 v -6.1979 -6.19789 h 2.87637 2.87609 l -1.6384,-5.16269 -1.63867,-5.16271 2.4126,-1.49108 2.4126,-1.4911 5.70691,6.07453 5.70664,6.07453 -3.07227,10.01084 -3.07254,10.01084 z m -2.7815,-26.94737 h 1.34736 V 769.34737 768 h -1.34736 -1.34737 v 1.34737 1.34737 z m -137.83713,13.47368 h -9.41729 l 4.91143,-6.18294 4.91142,-6.18291 12.10233,-13.99536 12.10233,-13.99536 1.8556,4.68354 1.8556,4.68356 0.18863,4.23073 0.18863,4.23074 -9.6415,11.264 -9.64177,11.264 h -9.41702 z m 26.00556,0 h -8.08421 v -1.60507 -1.60506 l 5.75003,-8.07548 5.7503,-8.07548 2.29268,3.61739 2.29268,3.61739 0.0404,6.06315 0.0404,6.06316 h -8.08421 z m 414.08831,-0.89824 h -3.59586 l -5.69074,-2.10512 -5.69075,-2.10511 -17.85397,-26.90374 -17.85425,-26.90374 2.90897,-5.43542 2.9087,-5.43539 5.70044,-3.99274 5.70045,-3.99273 6.01088,7.22297 6.01088,7.22295 23.42723,30.98947 23.42723,30.98947 -8.81395,0.88929 -8.81367,0.88932 -0.98843,-2.96529 -0.98843,-2.96531 -18.83082,-25.54506 -18.83109,-25.54505 h -1.36623 -1.36623 l 10.22114,14.14737 10.22086,14.14736 8.87161,11.84014 8.87189,11.84013 v 1.85813 1.8581 z m -38.17256,-61.08071 h 1.34737 v -1.34736 -1.34737 h -1.34737 -1.34737 v 1.34737 1.34736 z m 81.4821,61.97895 h -9.18205 l -31.57019,-38.0396 -31.56991,-38.03961 1.00486,-1.00511 1.00514,-1.00508 10.58331,4.28856 10.58358,4.28857 22.90526,26.92562 22.90526,26.9256 6.25826,7.83052 6.25852,7.83053 z m 27.18935,0 h -8.99854 l -30.5125,-32.57325 -30.51223,-32.57322 1.1396,-1.13974 1.13988,-1.13974 10.52564,3.73108 10.52564,3.73107 26.94737,27.43032 26.94736,27.4303 0.89816,2.55159 0.89815,2.55159 z m -535.58347,-2.66008 -9.22759,-0.0348 6.45443,-7.41053 6.45444,-7.41053 20.22588,-20.88421 20.22562,-20.88421 h 2.08437 2.08438 l -0.0835,7.41053 -0.0835,7.41053 -19.45277,20.91886 -19.45276,20.91884 -9.22759,-0.0348 z m -11.65636,-8.39308 -4.71578,3.62886 v -8.55578 -8.55577 l 29.16998,-28.82681 29.17025,-28.82681 -9.57736,8.08421 -9.57736,8.08421 -1.40342,1.41792 -1.40315,1.41794 -16.37753,14.07679 -16.37753,14.07682 h -1.81194 -1.81194 v -9.12166 -9.12165 l 6.06315,-3.97787 6.06316,-3.97786 21.55789,-18.56364 21.55789,-18.56363 8.08421,-6.26303 8.08421,-6.26305 -4.0421,2.02296 -4.04211,2.02297 -16.16841,12.24914 -16.16842,12.24911 -14.25247,11.52779 -14.25219,11.52779 h -1.24254 -1.24227 l 0.0997,-8.75789 0.0997,-8.7579 22.13241,-15.47178 22.13241,-15.47177 8.08421,-7.05806 8.08421,-7.05808 -9.43158,6.6059 -9.43158,6.60591 -13.47368,9.48941 -13.47369,9.48938 -7.41052,4.72341 -7.41053,4.72342 0.0755,-9.06782 0.0781,-9.06781 30.03176,-19.64782 30.03203,-19.64783 4.01786,4.01785 4.01785,4.01782 -3.81063,4.85104 -3.81062,4.85104 4.68372,-3.6719 4.68399,-3.67193 1.50743,3.92866 1.50771,3.92865 -1.28835,7.10438 -1.28809,7.10438 -4.22966,6.03847 -4.22939,6.03848 v 13.69707 13.69708 l -26.27368,25.52021 -26.27368,25.52021 -4.71579,3.62887 z m 560.70354,-5.32346 -0.87202,8.61529 -25.04272,-23.39961 -25.04246,-23.39964 1.00541,-1.0053 1.00514,-1.0053 13.28478,3.94515 13.28478,3.94512 11.62455,11.84451 11.62429,11.84452 z m 0.12935,-21.79441 -1.00217,2.87335 -6.73685,-5.19651 -6.73684,-5.1965 4.04211,-0.0189 4.0421,-0.0189 3.69691,2.34181 3.69664,2.34181 -1.0019,2.87334 z m 42.78729,-7.91894 -8.75789,-0.27944 -22.90526,-6.57891 -22.90526,-6.5789 -26.94737,-8.28316 -26.94736,-8.28317 -24.25263,-7.79188 -24.25263,-7.79191 -26.94737,-10.58617 -26.94736,-10.58617 -32.33684,-12.59428 -32.33684,-12.59428 -25.6,-10.72217 -25.59999,-10.7222 -37.72631,-18.46983 -37.72632,-18.46984 -29.61919,-17.06127 -29.6192,-17.06124 -0.92456,-4.80081 -0.92457,-4.8008 1.35626,-3.53429 1.35626,-3.53431 37.27171,14.56223 37.27171,14.56219 17.51579,7.81202 17.51579,7.81199 16.16842,5.34606 16.16842,5.34606 20.53928,4.2184 20.53928,4.21839 4.82897,1.85309 4.82924,1.85309 -1.94857,-3.15268 -1.94856,-3.15268 h 2.36247 2.36221 l 20.02836,5.32604 20.02836,5.32607 2.69474,0.0216 2.69473,0.0216 -4.0421,-2.61101 -4.04211,-2.6122 7.17339,-0.0412 7.17339,-0.0412 21.06368,4.03012 21.06341,4.03011 12.86979,4.27466 12.86979,4.27464 2.43847,-0.89423 2.43874,-0.89424 -14.7518,-35.03158 -14.7518,-35.03158 -3.63978,-9.7989 -3.63951,-9.79893 -4.52823,-8.75681 -4.52851,-8.75682 7.66922,-6.27367 7.66922,-6.27367 2.48239,-0.097 2.48266,-0.097 5.21594,-4.71579 5.21593,-4.71579 13.63725,14.82105 13.63725,14.82105 19.42717,24.25264 19.42689,24.25263 17.32635,25.6 17.32662,25.6 23.03568,40.42105 23.03569,40.42105 9.82231,17.77476 9.82259,17.77475 v 1.76209 1.76209 l -8.7579,-0.27945 z m -598.23151,-61.92244 -10.10526,6.05198 v -8.18513 -8.18513 l 18.86315,-11.01668 18.86316,-11.01667 v -1.4758 -1.4758 l -17.60876,9.67887 -17.60848,9.67888 h -1.25467 -1.2544 v -15.70779 -15.70781 l 13.77118,-6.45015 13.77145,-6.45017 4.84999,5.98954 4.84998,5.98953 h 2.43254 2.43227 l 7.24103,7.55799 7.24102,7.55798 v 1.66664 1.66667 l -18.18947,11.89052 -18.18947,11.89053 z m -4.87505,-32.1139 h 2.53575 l 1.64648,-2.66389 1.64622,-2.66385 -4.18196,1.60479 -4.18197,1.60483 v 1.05906 1.05906 z m 36.21996,-2.69474 h 1.34736 l 1.66562,-2.69474 1.66535,-2.69474 h -1.34737 -1.34737 l -1.66535,2.69474 -1.66561,2.69474 z m -26.62912,-2.69474 h 1.34737 v -1.34737 -1.34737 h -1.34737 -1.34737 v 1.34737 1.34737 z m 5.38947,-2.69474 h 1.34737 v -1.34736 -1.34737 h -1.34737 -1.34737 v 1.34737 1.34736 z m 580.13555,20.09582 -0.76719,24.36734 -6.06316,-11.34527 -6.06315,-11.34527 v -16.97146 -16.97142 l 61.97921,-61.93524 61.97894,-61.93524 -60.75472,-60.79798 -60.755,-60.79798 5.63605,-5.10043 5.63577,-5.10044 64.55053,64.50825 64.55025,64.50826 v 2.73685 2.73686 l -64.58017,64.5379 -64.5799,64.53792 z m -590.9401,-34.7326 -9.40597,3.93016 -0.42469,-4.75195 -0.42442,-4.75195 0.12126,-3.33943 0.12126,-3.33942 -2.56054,1.58235 -2.56027,1.58235 -5.2197,-4.72374 -5.21944,-4.72374 v -1.94929 -1.9493 l 11.0204,-2.79729 11.02039,-2.7973 10.7105,9.67615 10.71023,9.67613 -4.24043,2.37306 -4.24044,2.37307 z m 558.48982,-5.32933 -1.23312,1.23319 -3.40884,-4.10721 -3.40857,-4.10723 h 2.86558 2.86559 l 1.77637,2.87401 1.7761,2.87402 z m 3.52309,-7.15207 -4.17684,-0.17085 -6.06315,-2.43709 -6.06316,-2.4371 v -3.59 -3.58999 l 3.02295,-3.02311 3.02323,-3.0231 3.03993,0.69514 3.0402,0.69513 -2.01216,-1.12731 -2.01243,-1.12732 11.67306,-11.67287 11.67279,-11.67285 12.79138,2.72815 12.79137,2.72816 -5.8209,6.19611 -5.8209,6.19612 -9.47334,-2.61573 -9.47335,-2.6157 -1.28727,1.28736 -1.28728,1.28738 8.27688,1.8179 8.27689,1.81792 v 1.59475 1.59477 l -4.30808,4.7602 -4.3078,4.76022 -6.84491,-2.60236 -6.84463,-2.60239 -1.17679,1.17674 -1.17679,1.17671 5.59266,1.775 5.59265,1.77502 v 1.97419 1.97419 l -3.23368,3.23369 -3.23368,3.23368 -4.17685,-0.17084 z m -587.75734,-12.04917 -4.21214,1.6311 -4.90146,-5.41599 -4.90146,-5.41599 7.76624,-2.84319 7.76623,-2.84322 3.75808,-1.33238 3.75807,-1.33239 4.99982,4.52473 4.99981,4.52474 v 1.94023 1.94024 l -7.41052,1.4955 -7.41053,1.4955 z m 313.20923,-9.33791 h -4.76133 l -3.23368,-3.23368 -3.23369,-3.23369 0.0593,-2.82947 0.0593,-2.82947 19.47702,-22.03643 19.47728,-22.03643 21.5579,-19.91119 21.55789,-19.91122 25.6,-21.08088 25.59999,-21.08087 15.49474,-18.86326 15.49473,-18.86327 v -3.22048 -3.22048 l -21.03996,1.21797 -21.03996,1.21799 -7.81582,-6.72304 -7.81608,-6.72305 13.86226,-1.90655 13.86254,-1.90658 -1.3118,-3.41811 -1.31153,-3.41812 30.45268,-4.55537 30.45241,-4.5554 15.38506,-2.90533 15.38506,-2.90533 -0.56401,-2.73346 -0.56401,-2.73346 47.15789,-13.08489 47.15789,-13.08486 8.08421,-1.55745 8.08421,-1.55742 -7.07611,6.25217 -7.07638,6.25216 -36.32181,32.33685 -36.32182,32.33684 -13.19127,10.93147 -13.19155,10.93144 -28.03684,20.05803 -28.03685,20.05801 -28.55262,20.31413 -28.55262,20.31414 -25.6,19.16136 -25.6,19.16139 -19.62603,17.78763 -19.62607,17.78766 h -4.76133 z m -321.27781,-6.76082 -12.28072,1.82754 -3.59802,-4.33532 -3.59801,-4.33532 1.51768,-1.51789 1.51794,-1.51789 10.31869,-2.34688 10.31895,-2.3469 5.23965,5.20241 5.23964,5.2024 -1.19754,1.17017 -1.19754,1.17013 z m -14.79222,-13.61629 -10.90452,1.80245 -4.95697,-5.47754 -4.95723,-5.47753 3.73517,-1.19361 3.73544,-1.19358 9.65363,-1.59474 9.65389,-1.59472 4.66917,5.15934 4.6689,5.15937 -2.19648,1.30404 -2.19648,1.30403 z m 649.81309,1.3012 -5.64548,-0.21261 -4.0421,-1.34815 -4.04211,-1.34812 -4.0421,-1.33406 -4.04211,-1.33406 6.42776,-5.24296 6.42802,-5.24293 9.7404,1.75495 9.74066,1.75497 2.19648,1.26098 2.19675,1.26094 -4.63548,5.12197 -4.63522,5.12194 -5.64547,-0.21261 z M 175.57459,552.42105 H 162.5187 l -4.76225,-5.26223 -4.76224,-5.2622 6.36564,-1.30554 6.36564,-1.30555 7.25003,-1.52748 7.24992,-1.52752 4.20271,6.00013 4.20271,6.0001 v 2.09516 2.09513 z m 677.56483,-0.31259 -8.34021,-0.31259 -4.71579,-1.23238 -4.71579,-1.23236 v -2.40233 -2.40233 l 6.06316,-3.28319 6.06316,-3.28321 10.77894,0.73828 10.77895,0.73827 1.10619,1.08623 1.10619,1.08622 -4.8923,5.40599 -4.89229,5.40599 z m -407.16122,-8.0374 -16.16842,-0.18324 -16.03422,-3.87762 -16.03395,-3.87762 -11.46287,-6.7176 -11.4626,-6.7176 -4.16634,-5.94828 -4.16633,-5.94828 v -10.2867 -10.28673 l 5.12701,-9.99791 5.12727,-9.9979 6.33344,-5.90746 6.33344,-5.90745 14.81297,-6.76614 14.81323,-6.76613 11.75768,-1.867 11.75794,-1.86699 -3.43282,6.45637 -3.43283,6.45638 -6.88882,10.44819 -6.8891,10.4482 -0.0889,15.64219 -0.0889,15.64219 8.08421,8.51432 8.08421,8.51429 10.10526,5.19745 10.10527,5.19745 v 2.63995 2.63998 l 6.06315,0.0412 6.06316,0.0412 -4.0421,2.61228 -4.04211,2.61219 z m 63.99999,-2.6417 -12.8,-0.21262 -8.08421,-2.86755 -8.0842,-2.86755 -13.90296,-9.14569 -13.90268,-9.1457 -3.94591,-6.02233 -3.9459,-6.02233 -1.94533,-11.51437 -1.9456,-11.51437 7.19252,-14.70049 7.19225,-14.70046 h 2.19055 2.19056 l 1.78526,11.90596 1.78553,11.90597 3.77209,3.13059 3.7721,3.13055 4.48323,-15.42163 4.48323,-15.42163 -1.38509,-9.72015 -1.3851,-9.72019 -1.90113,-4.71579 -1.90114,-4.71579 h 2.88202 2.88202 l 14.21312,11.58621 14.21312,11.58618 9.09339,11.92209 9.09312,11.92205 -1.62304,13.81007 -1.62304,13.81007 -3.76347,10.66639 -3.7632,10.66641 3.69825,10.62578 3.69853,10.6258 0.0404,0.67369 0.0404,0.67368 -12.8,-0.21261 z m -355.55507,-5.49554 -5.91287,0.31881 -7.44834,-6.40679 -7.44833,-6.40679 14.23627,-1.95797 14.23626,-1.95799 6.77023,6.34373 6.77053,6.34371 -7.64545,1.70223 -7.6454,1.70222 z m 717.52745,0 -5.59347,-0.31884 -7.6455,-1.70222 -7.64551,-1.70223 6.48758,-6.07798 6.48758,-6.07798 12.72185,1.74374 12.72185,1.74371 -5.97046,6.35532 -5.97073,6.35529 z m -336.37238,-14.41792 -7.41053,1.84732 v -2.22847 -2.22844 l 13.77226,-13.94564 13.77253,-13.94564 1.35465,-12.01982 1.35491,-12.01984 -7.69644,-7.13642 -7.69616,-7.13642 -9.45206,-2.89277 -9.45179,-2.8928 -3.96665,-1.28765 -3.96665,-1.28766 3.96665,-2.5085 3.96665,-2.5085 8.08421,-0.0781 8.08421,-0.0782 6.03271,-1.61692 6.03297,-1.61695 -1.35626,-2.19435 -1.35626,-2.19438 5.58511,-1.77263 5.58511,-1.77262 13.47476,3.23258 13.47476,3.23255 7.92657,6.6698 7.92684,6.66982 v 9.27857 9.2786 l -3.81521,9.13088 -3.81521,9.13087 -18.41637,13.58972 -18.41636,13.58972 -8.08421,3.93243 -8.08421,3.9324 -7.41053,1.8473 z m -393.6348,-4.12643 h -14.35131 l -6.07118,-6.46246 -6.07116,-6.46246 14.16911,-0.95561 14.16909,-0.95561 6.2534,4.91892 6.25338,4.91892 v 2.49915 2.49915 z m 739.88851,0 h -14.57583 l 1.05876,-3.36842 1.05876,-3.36842 8.15185,-4.15579 8.15185,-4.15583 11.4114,1.08827 11.41167,1.08827 -6.04618,6.43598 -6.04645,6.43594 z M 315.59661,506.61053 h -1.95396 L 291.53369,491.4847 269.42472,476.35887 243.17556,452.59749 216.9264,428.83611 207.40266,417.197 197.87919,405.55789 185.53865,388.04211 173.19837,370.52632 166.13498,356.54958 159.07159,342.57284 152.41446,324.88642 145.7573,307.2 h 3.5801 3.58006 l 19.87805,11.84725 19.87826,11.84727 30.98947,9.51369 30.98947,9.51372 28.29474,8.14082 28.29473,8.1408 20.21052,4.05378 20.21053,4.05374 24.25263,2.70622 24.25263,2.70619 29.90133,4.03841 29.90134,4.03839 36.11971,1.83644 36.11971,1.83643 7.01036,3.53622 7.01035,3.53623 4.44228,6.77974 4.44227,6.77977 v 1.44219 1.44217 l -57.26315,-0.0321 -57.26315,-0.0318 -41.99451,-3.88522 -41.99477,-3.88522 -26.72101,-5.55865 -26.72128,-5.55862 -14.42627,-3.82755 -14.426,-3.82752 1.51067,1.51069 1.51066,1.51073 19.65218,6.71038 19.65244,6.7104 2.69474,2.61727 2.69474,2.61729 -16.16842,-1.69046 -16.16842,-1.69047 -9.39412,-1.47553 -9.39412,-1.47553 5.35201,6.0343 5.35202,6.03427 -12.12632,-1.71423 -12.12631,-1.71423 -6.73684,-1.6308 -6.73684,-1.6308 13.47368,12.4963 13.47368,12.49633 19.37704,15.37167 19.37705,15.37167 5.97369,4.21117 5.97369,4.21117 -0.24792,8.76601 -0.24791,8.76601 -1.73676,7.90703 -1.73676,7.90703 h -1.95395 z m -185.98407,-8.08421 h -14.96376 l 6.67562,-6.52984 6.67559,-6.52986 6.73684,-0.50526 6.73684,-0.50529 7.88024,0.29828 7.88028,0.29828 -6.32894,6.73684 -6.32894,6.73685 z m 765.82104,0 h -13.52785 l -7.2421,-5.69668 -7.24238,-5.6967 1.63787,-1.63783 1.63786,-1.63781 11.30415,-0.70122 11.30415,-0.7012 2.69473,1.97255 2.69474,1.97257 5.13347,6.06316 5.13321,6.06316 z m -354.68985,-17.06666 -1.79631,1.79647 v -3.59297 -3.59298 l 1.79631,1.79648 1.79658,1.7965 z m -391.65061,-2.32556 -14.11619,-0.77401 6.47354,-6.75899 6.47354,-6.75899 13.8289,0.94806 13.82896,0.94806 -6.18631,6.58494 -6.18623,6.58497 z m 723.62626,0.4878 -9.80669,0.0412 -6.36173,-5.15751 -6.36147,-5.15751 1.34737,-1.3412 1.34737,-1.34117 12.67119,-0.77242 12.67092,-0.77239 5.58215,5.05166 5.58187,5.05164 -3.43201,2.17818 -3.43202,2.17818 -9.80695,0.0412 z m -697.77374,-16.55843 -3.82976,-0.43124 -8.758,-1.08687 -8.7579,-1.08684 v -2.10634 -2.10634 l 5.1501,-4.66079 5.15008,-4.66076 12.36563,1.85435 12.36588,1.85436 v 1.97112 1.97109 l -4.92814,4.45976 -4.92786,4.45977 z m 683.05967,-1.34896 -11.04708,1.5083 -5.79503,-4.05895 -5.79476,-4.05894 v -2.23596 -2.23596 l 12.70568,-1.90537 12.70596,-1.90536 4.8772,6.02324 4.87747,6.02325 -0.74105,0.6687 -0.74105,0.66873 z m -667.77027,-14.79195 -5.64548,-0.40375 -7.41052,-1.1226 -7.41053,-1.1226 v -1.545 -1.54497 l 4.71579,-3.5798 4.71579,-3.5798 8.53746,-0.0857 8.53747,-0.0857 4.37868,1.68033 4.37894,1.6803 -4.5762,5.05654 -4.57593,5.05649 z m 640.8353,0.37409 -2.95101,0.0296 -4.6565,-5.14541 -4.65651,-5.14544 4.91251,-1.39024 4.91277,-1.39024 8.36419,-1.67621 8.36446,-1.67621 4.28302,6.53668 4.28301,6.5367 -9.95274,1.64554 -9.95247,1.64552 -2.95073,0.0296 z m -208.47048,-8.11642 -4.36979,2.33863 -18.75725,-13.98754 -18.75698,-13.98755 -12.67389,-8.03503 -12.67388,-8.03506 -22.08364,-16.16842 -22.0839,-16.16842 -13.19882,-8.81384 -13.19855,-8.81383 2.91435,5.44541 2.91409,5.44542 h -2.6853 -2.68558 L 463.59881,343.64985 441.9369,328.89966 v 0.6206 0.62057 l 2.50665,8.74011 2.50664,8.74011 h -2.28972 -2.28944 L 427.62866,334.14737 412.8863,320.67368 h -2.68046 -2.68072 l -3.93647,6.06316 -3.93621,6.06316 -6.08794,18.37859 -6.08768,18.37859 -11.16996,-1.68073 -11.16995,-1.68074 -7.41052,-1.41721 -7.41053,-1.41725 0.0647,-1.80695 0.0647,-1.80693 6.7654,-22.90526 6.76568,-22.90527 4.18223,-14.82105 4.1825,-14.82105 7.55631,-28.29474 7.55631,-28.29474 4.36062,-16.16842 4.36063,-16.16842 2.6694,-0.89824 2.66941,-0.89826 v -10.55437 -10.55439 h 2.66994 2.67022 l 13.85849,27.62105 13.85822,27.62105 10.1376,14.82106 10.13787,14.82105 13.08106,13.62785 13.08133,13.62785 8.08421,5.85814 8.08421,5.85814 -3.68506,2.42664 -3.68532,2.42667 15.81164,11.6488 15.81137,11.64881 23.56439,19.84612 23.56439,19.84612 32.82513,31.97698 32.82512,31.97696 -3.62065,4.36259 -3.62037,4.36257 z m 203.05325,-7.0805 -11.0627,1.69187 -4.84972,-5.35897 -4.84972,-5.35895 2.43874,-0.0396 2.43873,-0.0396 -6.52422,-3.3287 -6.52396,-3.3287 -1.11212,-3.37176 -1.11212,-3.37179 6.28871,-2.52058 6.28898,-2.52058 -3.54574,-0.17084 -3.54546,-0.17085 -5.04886,2.70201 -5.04886,2.70204 -1.54247,-2.49597 -1.54273,-2.49597 8.21167,-5.84712 8.21167,-5.84715 4.22588,1.62169 4.22616,1.62169 -1.54247,4.01939 -1.54246,4.01939 h 4.97502 4.97502 l 3.40857,4.10724 3.40884,4.10721 -1.15658,1.15639 -1.15631,1.15637 -6.63821,2.89018 -6.63795,2.89019 9.8746,-1.21013 9.87486,-1.21012 4.70528,5.19917 4.70501,5.19917 -1.10619,0.95585 -1.10619,0.95585 -11.0627,1.69184 z m -629.70793,-0.94184 h -6.99553 l -1.47672,-2.38939 -1.47672,-2.38942 3.60341,-2.99054 3.6034,-2.99057 4.86885,5.37996 4.86858,5.37996 z m 540.39169,-81.50137 -6.06315,1.28755 -0.31933,-2.33518 -0.31906,-2.33521 0.38589,-2.22135 0.38588,-2.22135 -2.33445,1.44282 -2.33445,1.44281 -8.81421,-9.0939 -8.81421,-9.09387 2.06686,-3.34393 2.06659,-3.34395 -3.07819,1.90245 -3.0782,1.90246 -13.61462,-12.73484 -13.61462,-12.73484 1.318,-3.43506 1.31826,-3.43507 -3.33419,1.27947 -3.3342,1.27948 -7.65763,-7.99269 -7.65737,-7.99267 1.75913,-4.58416 1.75885,-4.58412 -3.50639,2.91024 -3.50666,2.91023 -8.72744,-8.92583 -8.72718,-8.92583 1.64756,-5.05587 1.6473,-5.05589 -2.84753,4.03723 -2.8478,4.03725 -9.79159,-10.38107 -9.7916,-10.38107 3.80174,-9.8246 3.802,-9.82458 5.21485,0.92987 5.21486,0.92987 1.15658,1.12503 1.15658,1.12503 -4.525,9.48913 -4.525,9.48917 0.12665,1.92965 0.12665,1.92962 6.66301,-12.8 6.663,-12.8 h 6.61854 6.61828 l -2.56809,6.75514 -2.56835,6.75511 -4.17118,8.06594 -4.17118,8.06591 h 1.37108 1.37135 l 6.82765,-13.47368 6.82766,-13.47369 h 7.96887 7.96888 l -7.95028,13.48361 -7.95029,13.4836 -4.17522,8.07429 -4.1755,8.07429 h 1.16063 1.16035 l 7.66653,-12.8 7.66679,-12.8 1.34737,-2.69473 1.34737,-2.69474 5.02568,-7.41053 5.02569,-7.41052 h 6.71528 6.71501 l -1.44653,3.77004 -1.44681,3.77005 -13.85552,22.10816 -13.85526,22.10816 2.60069,-1.60741 2.60096,-1.60741 15.53004,-24.2708 15.5303,-24.27079 h 7.66168 7.66194 v 1.54653 1.54654 l -15.23146,22.03241 -15.23146,22.03241 -5.92896,8.08421 -5.92896,8.08421 -2.14016,4.04211 -2.14016,4.0421 2.69932,-2.69473 2.69932,-2.69474 24.72636,-33.01053 24.72637,-33.01052 h 8.00121 8.00121 v 1.50525 1.50528 l -23.4399,28.81051 -23.43962,28.81054 4.33529,-3.49804 4.33502,-3.49801 22.41644,-26.81778 22.41643,-26.81775 h 8.998 8.99799 l -5.35471,7.41052 -5.35444,7.41053 -31.25221,35.70526 -31.25193,35.70527 h 0.91405 0.91405 l 40.0287,-43.11579 40.02842,-43.11579 h 8.95408 8.95434 v 1.64864 1.64864 l -34.3579,36.70975 -34.35789,36.70978 36.37895,-34.21332 36.37894,-34.21332 0.82594,9.15485 0.82593,9.15489 -22.34556,21.05794 -22.34556,21.05794 -14.85932,14.44112 -14.85932,14.44115 26.29416,-22.98891 26.29444,-22.98894 10.75819,-8.52075 10.75847,-8.52076 v 9.05855 9.05854 l -15.49474,13.4898 -15.49473,13.4898 -20.77912,16.83895 -20.77911,16.83893 -1.6225,2.62532 -1.6225,2.62529 37.22266,-28.69472 37.22267,-28.69471 0.91621,7.77976 0.91648,7.77973 -8.86299,6.74988 -8.86326,6.74986 -6.87427,6.34821 -6.87427,6.34823 14.15356,-9.71665 14.15357,-9.71663 h 1.34117 1.34117 v 7.54526 7.54527 l -3.36842,3.629 -3.36842,3.62903 3.55974,-2.02003 3.55975,-2.02006 -0.86501,8.9866 -0.86501,8.98657 -6.73684,1.82752 -6.73684,1.82749 -18.86316,4.65825 -18.86315,4.65826 z m 21.91333,-7.42494 h 1.34737 l 1.66562,-2.69474 1.66534,-2.69473 h -1.34737 -1.34736 l -1.66535,2.69473 -1.66562,2.69474 z m -21.55789,-2.69474 h 1.34737 l 1.66561,-2.69473 1.66535,-2.69474 h -1.34737 -1.34737 l -1.66534,2.69474 -1.66562,2.69473 z m 29.6421,-2.69473 h 1.34737 l 1.66562,-2.69474 1.66534,-2.69474 h -1.34737 -1.34736 l -1.66535,2.69474 -1.66562,2.69474 z m -21.56975,-2.69474 h 1.01753 l 3.69826,-4.71579 3.69853,-4.71579 -4.71579,3.69836 -4.71579,3.6984 v 1.01739 1.01743 z m 29.65396,-2.69474 h 1.34737 l 1.66561,-2.69474 1.66535,-2.69473 h -1.34737 -1.34736 l -1.66535,2.69473 -1.66562,2.69474 z m -18.87501,-5.38947 h 1.01753 l 3.69826,-4.71579 3.69852,-4.71579 -4.71579,3.69836 -4.71579,3.6984 v 1.01739 1.01743 z m 26.95922,0 h 1.34737 l 1.66561,-2.69474 1.66535,-2.69474 h -1.34737 -1.34736 l -1.66535,2.69474 -1.66562,2.69474 z m -83.72277,-10.77895 h 0.84318 l 7.91471,-8.75789 7.91471,-8.7579 -8.75789,7.91469 -8.75789,7.91468 v 0.84321 0.84321 z m -16.4996,-26.94737 h 1.34737 l 4.87747,-5.38947 4.8772,-5.38948 h -1.34737 -1.34736 l -4.87721,5.38948 -4.87747,5.38947 z m -389.75646,56.31364 -5.53445,-0.27583 -8.31946,-1.98888 -8.31946,-1.9889 -3.52094,-2.17598 -3.52068,-2.176 -8.37039,-0.96862 -8.37012,-0.96862 -8.75789,-2.88386 -8.75789,-2.88385 v -3.83313 -3.83313 h 1.54112 1.54111 l 11.93257,6.9929 11.93256,6.9929 v -1.3225 -1.32252 l -13.47368,-8.64604 -13.47368,-8.64604 v -7.80331 -7.80328 h 1.67882 1.67882 l 17.18433,12.26248 17.18434,12.26245 v -1.14496 -1.14497 l -18.86316,-14.34053 -18.86315,-14.34052 v -9.23198 -9.23196 l 5.27386,3.6971 5.27387,3.6971 16.95771,13.08044 16.95771,13.08044 L 258.7603,294.68044 244.005,281.6 l -7.69374,-6.78198 -7.69401,-6.78198 0.89141,-8.48995 0.89142,-8.48994 23.10036,19.31402 23.10036,19.31404 19.98147,18.07479 19.98148,18.07481 -9.25265,9.54624 -9.25265,9.54627 z m -2.83971,-5.11364 h 1.34737 v -1.34737 -1.34736 h -1.34737 -1.34737 v 1.34736 1.34737 z m -8.08421,-5.38947 h 1.34737 V 332.8 331.45263 h -1.34737 -1.34737 v 1.34737 1.34737 z m 19.28084,-2.69474 h 0.92968 v -0.92971 -0.92971 l -6.06315,-5.13345 -6.06316,-5.13344 5.13347,6.06315 5.1332,6.06316 z m -27.20606,-2.69474 h 1.18838 v -1.18832 -1.18835 l -3.11108,-1.92275 -3.11134,-1.92278 1.92296,3.1111 1.9227,3.1111 z m 13.78438,-8.08421 h 0.87768 v -0.87764 -0.87763 l -7.41053,-6.5329 -7.41052,-6.53288 6.53285,7.41053 6.53285,7.41052 z m 533.30858,4.33042 -4.26254,1.63568 -0.0916,-2.30936 -0.0916,-2.30937 0.18055,-62.65263 0.18055,-62.65263 h -89.66709 -89.66736 l -62.67041,-62.62744 -62.66987,-62.627432 -47.16166,47.103812 -47.1614,47.10384 v -3.16055 -3.16055 l -6.7999,-0.8527 -6.79962,-0.85266 53.95994,-53.87181 53.95994,-53.871777 65.36515,65.324407 65.36542,65.32444 h 93.62188 93.62189 v 71.41052 71.41053 h -2.47431 -2.47458 z m -502.7888,-1.69849 -1.34737,-0.0458 -14.82105,-14.10975 -14.82105,-14.10978 -28.96842,-26.70781 -28.96841,-26.70783 v -9.2599 -9.25987 l 10.10526,8.7195 10.10526,8.71952 35.42204,34.67541 35.42204,34.67545 h 1.87904 1.87931 L 280.50116,265.0242 237.13692,220.15365 v -2.28735 -2.28734 h 7.71531 7.71556 l 13.06786,14.14737 13.06813,14.14736 28.45129,29.64211 28.45103,29.6421 -5.71257,-6.73684 -5.71257,-6.73684 -30.04847,-34.6492 -30.0482,-34.64919 v -2.40344 -2.40343 h 7.7533 7.75356 l 20.51907,25.25168 20.51908,25.2517 4.50694,3.71672 4.50695,3.71674 -20.65327,-26.44491 -20.653,-26.44488 v -2.52354 -2.52351 l 7.41053,0.0911 7.41052,0.0911 22.90526,31.11246 22.90526,31.11244 2.69474,1.65047 2.69474,1.65047 -3.07066,-3.8857 -3.07065,-3.8857 -19.27599,-26.94737 -19.27572,-26.94737 7.21516,-0.88773 7.21516,-0.88775 3.39267,3.58249 3.39294,3.58246 15.10696,22.51709 15.10697,22.51709 v 5.4733 5.47331 l -20.88421,21.18004 -20.88421,21.18006 -1.34737,-0.0458 z m 20.54036,-37.6635 h 1.01753 v -1.01743 -1.0174 l -4.71578,-3.69839 -4.71579,-3.69836 3.69825,4.71579 3.69853,4.71579 z m -131.02456,-26.63573 -1.34737,60.94323 -6.06315,-2.24588 -6.06316,-2.24584 v -67.45528 -67.45524 h 93.42975 93.43002 l 4.65543,-4.21322 4.65569,-4.21322 -4.40912,12.26094 -4.40886,12.26095 -86.26607,0.71017 -86.26579,0.71017 z m 157.16917,0.57978 -2.47485,8.54016 -9.42781,-14.82106 -9.42753,-14.82105 -6.16044,-10.10526 -6.16044,-10.10527 h 8.109 8.10901 l 9.95381,16.38616 9.95409,16.38616 z m 5.52852,-19.25843 -2.40937,8.4009 -7.38627,-13.5711 -7.38627,-13.5711 v -3.00374 -3.00374 h 6.4097 6.40997 l 3.38593,8.17392 3.38567,8.17394 z m 244.38269,-10.60543 -1.78418,2.01704 -10.17398,-10.41931 -10.17425,-10.41931 2.99816,-11.13457 2.99844,-11.13457 h 2.04396 2.04395 l 10.01903,10.26043 10.01903,10.26045 -3.10325,9.27639 -3.10299,9.27641 z m -9.15779,-12.34685 1.79658,-1.7965 -1.79658,-1.7965 -1.79631,-1.79648 v 3.59298 3.59297 z m 3.59316,-9.88071 2.61201,-4.04211 v -2.69474 -2.69473 l -2.61201,4.0421 -2.61228,4.04211 v 2.69474 2.69473 z m -234.10847,15.72069 -2.2784,3.59435 -1.72248,-4.48844 -1.7222,-4.48846 v -1.12697 -1.12696 h 4.0421 4.04211 l -0.0404,2.02105 -0.0404,2.02105 -2.27867,3.59438 z m 215.44553,-18.98744 -1.8758,3.47009 -4.81711,-5.3228 -4.81685,-5.32281 1.84698,-10.93317 1.84724,-10.93316 2.10001,-1.29795 2.10027,-1.29795 4.65597,5.14495 4.65624,5.14496 -1.91057,8.93887 -1.91057,8.93887 z m -149.71363,-2.15978 -3.99737,3.31757 -2.73947,-7.20516 -2.7392,-7.20516 v -4.79639 -4.79641 l 5.1526,-4.66314 5.15261,-4.66313 1.19754,3.57179 1.19727,3.57182 -0.6594,-4.52896 -0.6594,-4.52897 6.36523,-5.97997 6.36551,-5.97994 1.19242,3.77206 1.19269,3.7721 1.71197,7.76197 1.71196,7.762 -6.19169,6.59081 -6.1917,6.59082 -1.76343,-6.26858 -1.76344,-6.2686 -0.26947,8.42795 -0.26948,8.42792 z m 136.42696,-12.58714 -1.92862,4.89159 -4.61878,-5.10378 -4.61877,-5.10377 0.0377,-7.87203 0.0377,-7.87203 1.65295,-6.17089 1.65295,-6.17087 5.04697,4.56747 5.04724,4.56747 -0.18863,9.68764 -0.18863,9.6876 -1.92862,4.8916 z m -106.85789,-16.41532 -6.1863,4.64471 -1.60849,-4.19142 -1.60822,-4.19142 v -8.79352 -8.79355 l 5.33315,-4.82654 5.33343,-4.82657 1.17382,3.73523 1.17383,3.73522 1.28754,9.43158 1.28755,9.43158 z m 90.35344,4.78688 h -1.91084 l -4.45952,-4.92797 -4.45978,-4.92797 0.18863,-9.2194 0.18863,-9.2194 1.91272,-4.84653 1.91273,-4.84654 5.99686,6.38337 5.99687,6.38335 -1.7284,12.61053 -1.72868,12.61056 z m -81.31098,-16.16842 h -2.27705 v -14.66826 -14.66823 l 6.06316,-4.26461 6.06315,-4.26461 0.82459,13.83798 0.82486,13.83799 -4.61096,5.09486 -4.6107,5.09488 z m 65.49369,-0.0846 -1.7497,-0.0846 -4.84028,-6.65012 -4.84002,-6.65013 0.62788,-12.12836 0.62787,-12.12837 h 1.7214 1.72139 l 5.41104,6.06316 5.41103,6.06316 -1.1706,12.8 -1.17032,12.8 z m -42.17074,-21.47323 -6.73685,6.32894 V 131.63426 116.8132 l 6.73685,-6.32894 6.73684,-6.32894 v 14.82106 14.82105 z m 25.396,5.37015 -1.55136,0.0189 -5.85916,-6.23684 -5.85917,-6.23683 v -13.97369 -13.9737 h 2.22504 2.22478 l 5.86967,6.24799 5.86968,6.24799 -0.68392,13.94322 -0.6842,13.94319 -1.55136,0.0189 z" style="fill:#e8e2d4;fill-opacity:1;stroke-width:2.69474"></path>
  </g>
</svg>
